<?xml version="1.0" standalone="no"?><!DOCTYPE svg PUBLIC "-//W3C//DTD SVG 1.1//EN" "http://www.w3.org/Graphics/SVG/1.1/DTD/svg11.dtd"><svg id="bslogo" version="1.1" x="0" y="0" viewBox="0 138.6 640 278.9" xml:space="preserve" xmlns="http://www.w3.org/2000/svg" xmlns:xlink="http://www.w3.org/1999/xlink" style="height:131px;margin-bottom:16px;margin-left:60px;margin-right:60px;text-align:center;perspective-origin:150px 65.5px;-webkit-perspective-origin:150px 65.5px;transform-origin:150px 65.5px;-webkit-transform-origin:150px 65.5px;">
<path class="st0" d="M640 334c0 0-2.5-0.4-6.7-1.4 -2.1-0.4-4.9-1.1-8.1-1.8 -3.2-0.7-7-1.4-11.2-1.8 -8.4-1.4-18.6-2.8-30.1-3.9 -11.6-1.4-24.9-2.5-39.2-3.2 -14.4-0.7-29.8-1.4-46.2-1.8 -8.1 0-16.8-0.4-25.2 0 -8.8 0-17.5 0-26.3 0.4 -17.9 0.4-36.4 1.1-55.3 2.1 -18.9 1.1-37.8 2.1-57.1 3.5 -9.5 0.7-18.9 1.4-28.7 2.5 -9.5 0.7-18.9 1.8-28.4 2.8 -4.6 0.4-9.5 1.1-14 1.4 -4.6 0.4-9.1 1.1-14 1.4 -4.6 0.7-9.1 1.1-13.7 1.4 -4.6 0.7-9.1 1.1-13.7 1.4 -17.9 1.8-35.4 3.2-52.2 3.5 -8.4 0.4-16.5 0.7-24.2 0.7s-15.4 0-22.8-0.4c-14.4-0.4-27.7-1.4-39.6-2.5 -11.9-1.4-22.1-3.2-30.5-5.3 -4.2-1.1-7.7-2.1-10.9-3.2 -3.2-1.1-6-2.1-8.1-3.2 -2.1-1.1-3.9-1.8-4.6-2.5 -1.1-0.7-1.4-1.1-1.4-1.1s0.7 0.4 1.8 0.7c1.1 0.4 2.8 1.1 4.9 1.4 2.1 0.7 4.9 1.1 8.1 1.8s7 1.1 11.2 1.4c4.2 0.4 8.8 0.7 13.7 0.7 4.9 0 10.5 0.4 16.1 0 11.6 0 24.9-0.7 38.9-1.4 7-0.4 14.7-1.1 22.4-1.4 7.7-0.7 15.8-1.4 23.8-2.1 16.5-1.4 33.6-3.2 51.5-5.3 9.1-1.1 18.2-2.1 27.3-3.2 9.1-1.1 18.6-2.1 28-3.2 9.5-1.1 18.9-1.8 28.7-2.5 9.5-0.7 19.3-1.4 28.7-2.1 19.3-1.4 38.5-2.1 57.4-2.5 18.9-0.4 37.5-0.4 55.7 0 9.1 0.4 17.9 0.4 26.6 1.1 8.8 0.4 17.2 1.1 25.6 1.4 16.5 1.1 32.2 2.8 46.6 4.6 14.4 2.1 27.7 4.2 39.2 6.3 11.6 2.5 21.7 4.6 29.8 7 4.2 1.1 7.7 2.1 10.9 3.2 3.2 1.1 6 1.8 8.1 2.5C637.5 333.3 640 334 640 334z" style="height:auto;overflow-x:visible;overflow-y:visible;text-align:center;width:auto;perspective-origin:0px 0px;-webkit-perspective-origin:0px 0px;transform-origin:0px 0px;-webkit-transform-origin:0px 0px;fill:rgb(234, 80, 78);"/>
<path class="st1" d="M149.1 253.1c0-18.2-10.2-28.7-31.5-31.9 17.9-3.9 26.3-13.3 26.3-28.7 0-22.8-14.4-32.2-50.1-32.2H36.1v14.4h9.8c2.8 0 3.9 1.4 3.9 5.3v88.2c0 4.2-1.1 5.6-3.9 5.6h-9.8v14.4h57.4C132.3 288.1 149.1 277.6 149.1 253.1zM77 174.7h16.1c16.5 0 22.4 5.3 22.4 21 0 14.7-7.7 20.7-23.8 20.7H77V174.7zM77 229h19.3c16.8 0 24.2 6.3 24.2 22.8 0 16.1-7 22.1-25.6 22.1H77V229z" style="height:auto;overflow-x:visible;overflow-y:visible;text-align:center;width:auto;perspective-origin:0px 0px;-webkit-perspective-origin:0px 0px;transform-origin:0px 0px;-webkit-transform-origin:0px 0px;fill:rgb(8, 126, 215);"/>
<polygon class="st1" points="471.9 178.9 484.6 169.1 497.2 178.9 492.3 163.5 504.9 154 489.5 154 484.6 138.6 479.6 154 463.9 154 476.5 163.5 " style="height:auto;overflow-x:visible;overflow-y:visible;text-align:center;width:auto;perspective-origin:0px 0px;-webkit-perspective-origin:0px 0px;transform-origin:0px 0px;-webkit-transform-origin:0px 0px;fill:rgb(8, 126, 215);"/>
<path class="st1" d="M603.6 302.1c-2.1-0.7-4.9-1.4-8.1-2.5 -3.2-1.1-6.7-2.1-10.9-3.2 -7.7-2.1-17.5-4.2-28.4-6.3 2.1 0 4.2 0.4 6.3 0.4 24.9 0 37.8-13 43.4-29.4l-15.1-7c-4.6 12.3-12.6 19.6-26.3 19.6 -17.9 0-27-12.6-27.3-31.9h70v-5.3c0-34-16.8-53.9-47.3-53.9 -29.8 0-50.1 21.7-50.1 53.9 0 25.6 11.6 45.2 34.7 51.8 -8.8-1.4-18.6-2.8-28.7-4.2 -2.1-0.4-4.2-0.4-6.3-0.7v-11.2h-8.4c-2.1 0-3.2-1.1-3.2-5.6v-83.3c-4.6 1.1-13.3 2.1-23.1 2.1h-15.8v15.8h7.7c3.5 0 4.2 1.8 4.2 8.4v57.1c0 4.6-1.1 5.6-3.2 5.6h-8.8v7c-1.1 0-2.1 0-3.2 0v-7h-8.8c-2.1 0-3.5-0.7-3.5-5.6v-45.5c0-25.6-10.9-38.2-31.2-38.2 -15.4 0-26.6 7-32.6 21v-20.3c-4.2 1.1-13.3 2.1-22.8 2.1h-22.4c5.3 2.5 8.8 11.6 9.5 15.8h6.3c2.5 0 3.5 1.4 3.5 6.3v59.2c0 4.9-1.1 5.6-3.5 5.6h-8.8v6.7c-12.3 0.4-24.9 1.1-37.1 1.8v-8.4h-9.5c-2.1 0-3.5-0.7-3.5-5.6v-32.2c0-21.4 6.7-34.3 19.6-34.3 2.8 0 5.3 0.7 6.7 2.1 -6 1.8-9.5 7.7-9.5 13.3 0 7.7 6.3 14 13.3 14 11.2 0 18.9-8.8 18.9-22.1 0-15.1-8.8-24.9-23.1-24.9 -11.6 0-21.7 6.7-26.3 23.1v-22.4c-4.6 1.1-13.3 2.1-23.1 2.1h-16.1v15.8h9.5c2.5 0 3.5 1.4 3.5 6.3v59.2c0 4.9-1.1 5.6-3.5 5.6h-8.8v13c-2.1 0.4-4.2 0.4-6 0.7 -8.4 0.7-16.5 1.8-24.5 2.8 14-4.6 22.1-14.7 26.3-27l-15.1-7c-4.6 12.3-12.6 19.6-26.3 19.6 -17.9 0-27-12.6-27.3-31.9h70v-5.3c0-34-16.8-53.9-47.3-53.9 -29.8 0-50.1 21.7-50.1 53.9 0 30.5 16.5 52.5 49.7 53.9 -3.5 0.4-7 0.7-10.5 1.4 -8.8 1.1-17.5 2.1-26.3 2.8 -8.4 1.1-16.8 1.8-25.2 2.5 -16.5 1.4-31.9 2.5-46.2 3.2 -7 0.4-14 0.7-20.7 0.7 -6.7 0.4-12.6 0.4-18.6 0.4s-11.2 0-16.1-0.4 -9.5-0.7-13.7-1.1c-8.4-0.7-14.7-2.1-19.3-3.5 -2.1-0.7-3.9-1.4-4.9-1.8 -0.7-1.1-1.4-1.1-1.4-1.1s0.7 0.4 1.4 1.1c1.1 0.7 2.5 1.4 4.9 2.5 2.1 1.1 4.9 2.1 8.1 3.2 3.2 0.7 6.7 1.8 10.9 2.8 8.4 2.1 18.6 3.5 30.1 4.6 11.6 1.1 24.9 1.8 39.6 2.1 14.4 0 30.1 0 46.6-0.7s34-2.1 51.8-3.9c9.1-1.1 18.2-2.1 27.3-3.2 4.6-0.4 9.1-1.1 14-1.4 4.6-0.4 9.5-1.1 14-1.4 18.9-1.8 37.8-3.5 56.7-5.3 18.9-1.4 38.2-2.8 57.1-3.5 18.9-1.1 37.5-1.4 55.3-1.8 17.9-0.4 35.4-0.4 51.8 0s31.9 1.1 46.2 2.1c14.4 1.1 27.3 2.1 38.9 3.5 11.6 1.4 21.7 2.8 30.1 4.2 4.2 0.7 7.7 1.4 11.2 2.1 3.2 0.7 6 1.1 8.1 1.8 4.6 1.1 6.7 1.4 6.7 1.4S608.1 303.5 603.6 302.1zM559.8 199.2c14 0 20 8.1 20.3 28.7h-43.4C538.1 207.6 545.8 199.2 559.8 199.2zM203.1 199.2c14 0 20 8.1 20.3 28.7H180C181.4 207.6 189.1 199.2 203.1 199.2zM391.8 278v-5.6h-7.7c-2.1 0-3.5-0.7-3.5-5.6v-31.9c0-22.8 7.7-33.6 21-33.6 10.9 0 15.8 6 15.8 20.3v45.2c0 4.9-1.1 5.6-3.5 5.6h-7.7v5.6C401.6 277.6 396.7 277.6 391.8 278z" style="height:auto;overflow-x:visible;overflow-y:visible;text-align:center;width:auto;perspective-origin:0px 0px;-webkit-perspective-origin:0px 0px;transform-origin:0px 0px;-webkit-transform-origin:0px 0px;fill:rgb(8, 126, 215);"/>
<path class="st1" d="M271.5 399.1c3.2-3.3 5.4-6 6.6-8.1 1.2-2.1 1.8-4.3 1.8-6.6 0-4.1-1.4-7.3-4.2-9.7 -2.8-2.4-6.1-3.6-9.8-3.6 -3.7 0-6.8 0.7-9.2 2.2 -2.4 1.5-4.5 3.7-6.5 6.7l6.1 3.5c2.4-3.8 5.5-5.6 9.2-5.6 2.1 0 3.8 0.6 5.2 1.9 1.4 1.3 2 2.8 2 4.6s-0.6 3.6-1.9 5.3c-1.3 1.8-3.4 4.2-6.5 7.2l-13.6 13.6v6.4h30.6v-7.2H261L271.5 399.1zM306.7 371.2c-6.1 0-10.7 2.1-13.7 6.3 -3 4.2-4.5 9.8-4.5 16.9s1.5 12.7 4.5 16.9c3 4.2 7.6 6.3 13.7 6.3 6.1 0 10.7-2.1 13.7-6.3 3-4.2 4.5-9.8 4.5-16.9s-1.5-12.7-4.5-16.9C317.4 373.3 312.8 371.2 306.7 371.2zM314.9 406.5c-1.7 3.1-4.5 4.6-8.2 4.6 -3.8 0-6.5-1.5-8.3-4.6 -1.8-3.1-2.7-7.1-2.7-12.1s0.9-9 2.7-12.1c1.8-3.1 4.5-4.6 8.3-4.6 3.8 0 6.5 1.5 8.2 4.6 1.7 3.1 2.6 7.1 2.6 12.1C317.5 399.4 316.7 403.4 314.9 406.5z" style="height:auto;overflow-x:visible;overflow-y:visible;text-align:center;width:auto;perspective-origin:0px 0px;-webkit-perspective-origin:0px 0px;transform-origin:0px 0px;-webkit-transform-origin:0px 0px;fill:rgb(8, 126, 215);"/>
<polygon class="st1" points="330.6 379 339.7 379 339.7 417 346.8 417 346.8 372.3 330.6 372.3 " style="height:auto;overflow-x:visible;overflow-y:visible;text-align:center;width:auto;perspective-origin:0px 0px;-webkit-perspective-origin:0px 0px;transform-origin:0px 0px;-webkit-transform-origin:0px 0px;fill:rgb(8, 126, 215);"/>
<path class="st1" d="M385.5 392.2c-2.7-2.7-6.1-4-10.1-4 -2.4 0-4.7 0.5-6.7 1.6 -2 1-3.5 2.2-4.6 3.4 0-4.6 1-8.2 2.9-10.9 1.9-2.7 4.8-4 8.8-4 1.3 0 2.7 0.3 4.4 1 1.6 0.7 3 1.5 3.9 2.3l3.8-5.6c-3.9-3-8.3-4.5-13.2-4.5s-8.9 1.8-12.3 5.2c-1.7 1.8-3.1 4.2-4 7.3 -1 3.1-1.5 6.9-1.5 11.5 0 4.6 0.8 8.7 2.3 12.4 2.7 6.4 7.7 9.6 14.8 9.6 4.4 0 8.1-1.3 11-4 2.9-2.7 4.4-6.2 4.4-10.7S388.2 394.9 385.5 392.2zM380.4 408.7c-1.7 1.5-3.8 2.2-6.3 2.2 -2.5 0-4.6-0.8-6.3-2.5 -1.7-1.6-2.5-3.6-2.5-5.9s0.9-4.1 2.6-5.6c1.7-1.4 3.9-2.1 6.5-2.1 2.6 0 4.6 0.8 6.2 2.4 1.5 1.6 2.3 3.5 2.3 5.8C382.9 405.4 382 407.2 380.4 408.7z" style="height:auto;overflow-x:visible;overflow-y:visible;text-align:center;width:auto;perspective-origin:0px 0px;-webkit-perspective-origin:0px 0px;transform-origin:0px 0px;-webkit-transform-origin:0px 0px;fill:rgb(8, 126, 215);"/>
<rect x="44.5" y="393.2" class="st2" width="190" height="2.5" style="height:auto;overflow-x:visible;overflow-y:visible;text-align:center;width:auto;perspective-origin:0px 0px;-webkit-perspective-origin:0px 0px;transform-origin:0px 0px;-webkit-transform-origin:0px 0px;fill:rgb(225, 226, 226);x:44.5px;y:393.200012207031px;"/>
<rect x="406.5" y="393.2" class="st2" width="190" height="2.5" style="height:auto;overflow-x:visible;overflow-y:visible;text-align:center;width:auto;perspective-origin:0px 0px;-webkit-perspective-origin:0px 0px;transform-origin:0px 0px;-webkit-transform-origin:0px 0px;fill:rgb(225, 226, 226);x:406.5px;y:393.200012207031px;"/>
</svg>